# xmcd
#
# Track frame offsets:
#	182
#	12812
#	31525
#	47535
#	64765
#	83995
#	87652
#	105055
#	124925
#	139167
#	162430
#	179910
#	196580
#	212387
#
# Disc length: 3035 seconds
#
# Revision: 0
# Processed by: cddbd v1.4PL0 Copyright (c) Steve Scherf et al.
# Submitted via: dBpowerAMP V4.0
#
DISCID=b00bd90e
DTITLE=REN-REN - DESPERADOS
DYEAR=1900
DGENRE=
TTITLE0=Taille la route
TTITLE1=Seul
TTITLE2=Que la vie me pardonne
TTITLE3=Le temps qu'il nous reste
TTITLE4=Hey fils
TTITLE5=Exister
TTITLE6=Les voix africaines
TTITLE7=Libre avant tout
TTITLE8=Mômes jusqu'à cent ans
TTITLE9=Desperados
TTITLE10=Faut qu'on t'dise
TTITLE11=Sarah
TTITLE12=Mon p'tit bonhomme
TTITLE13=Hoedic
EXTD=The autor-compositor of the album is Renaud Detressan\n
EXTT0=
EXTT1=
EXTT2=
EXTT3=
EXTT4=
EXTT5=
EXTT6=
EXTT7=
EXTT8=
EXTT9=
EXTT10=
EXTT11=
EXTT12=
EXTT13=
PLAYORDER=
